<mxfile host="app.diagrams.net" agent="Mozilla/5.0 (X11; Linux x86_64) AppleWebKit/537.36 (KHTML, like Gecko) Chrome/128.0.0.0 Safari/537.36" version="24.7.7">
  <diagram name="Page-1" id="vAOD8KEE5CEis8ILfhlD">
    <mxGraphModel dx="2346" dy="1234" grid="1" gridSize="10" guides="1" tooltips="1" connect="1" arrows="1" fold="1" page="1" pageScale="1" pageWidth="827" pageHeight="1169" math="0" shadow="0">
      <root>
        <mxCell id="0" />
        <mxCell id="1" parent="0" />
        <mxCell id="stXpBWwS-PEf_fCnOzC--5" value="" style="edgeStyle=orthogonalEdgeStyle;rounded=0;orthogonalLoop=1;jettySize=auto;html=1;" edge="1" parent="1" source="stXpBWwS-PEf_fCnOzC--1" target="stXpBWwS-PEf_fCnOzC--4">
          <mxGeometry relative="1" as="geometry" />
        </mxCell>
        <mxCell id="stXpBWwS-PEf_fCnOzC--1" value="Start / Cron job executed" style="ellipse;whiteSpace=wrap;html=1;" vertex="1" parent="1">
          <mxGeometry x="175" y="207.5" width="130" height="65" as="geometry" />
        </mxCell>
        <mxCell id="stXpBWwS-PEf_fCnOzC--14" value="" style="edgeStyle=orthogonalEdgeStyle;rounded=0;orthogonalLoop=1;jettySize=auto;html=1;" edge="1" parent="1" source="stXpBWwS-PEf_fCnOzC--4" target="stXpBWwS-PEf_fCnOzC--13">
          <mxGeometry relative="1" as="geometry" />
        </mxCell>
        <mxCell id="stXpBWwS-PEf_fCnOzC--4" value="Getting values" style="rounded=1;whiteSpace=wrap;html=1;" vertex="1" parent="1">
          <mxGeometry x="180" y="342.5" width="120" height="60" as="geometry" />
        </mxCell>
        <mxCell id="stXpBWwS-PEf_fCnOzC--7" style="edgeStyle=orthogonalEdgeStyle;rounded=0;orthogonalLoop=1;jettySize=auto;html=1;exitX=0.5;exitY=1;exitDx=0;exitDy=0;exitPerimeter=0;" edge="1" parent="1" source="stXpBWwS-PEf_fCnOzC--6">
          <mxGeometry relative="1" as="geometry">
            <mxPoint x="300" y="357.5" as="targetPoint" />
            <Array as="points">
              <mxPoint x="460" y="357.5" />
              <mxPoint x="300" y="357.5" />
            </Array>
          </mxGeometry>
        </mxCell>
        <mxCell id="stXpBWwS-PEf_fCnOzC--9" value="Getting last executed time" style="edgeLabel;html=1;align=center;verticalAlign=middle;resizable=0;points=[];" vertex="1" connectable="0" parent="stXpBWwS-PEf_fCnOzC--7">
          <mxGeometry x="-0.5254" relative="1" as="geometry">
            <mxPoint as="offset" />
          </mxGeometry>
        </mxCell>
        <mxCell id="stXpBWwS-PEf_fCnOzC--6" value="cron_jobs" style="shape=cylinder3;whiteSpace=wrap;html=1;boundedLbl=1;backgroundOutline=1;size=15;" vertex="1" parent="1">
          <mxGeometry x="480" y="150" width="60" height="80" as="geometry" />
        </mxCell>
        <mxCell id="stXpBWwS-PEf_fCnOzC--11" style="edgeStyle=orthogonalEdgeStyle;rounded=0;orthogonalLoop=1;jettySize=auto;html=1;exitX=0.5;exitY=1;exitDx=0;exitDy=0;exitPerimeter=0;entryX=1;entryY=0.75;entryDx=0;entryDy=0;" edge="1" parent="1" source="stXpBWwS-PEf_fCnOzC--10" target="stXpBWwS-PEf_fCnOzC--4">
          <mxGeometry relative="1" as="geometry" />
        </mxCell>
        <mxCell id="stXpBWwS-PEf_fCnOzC--12" value="Getting all open restriction requests" style="edgeLabel;html=1;align=center;verticalAlign=middle;resizable=0;points=[];" vertex="1" connectable="0" parent="stXpBWwS-PEf_fCnOzC--11">
          <mxGeometry x="-0.5238" y="2" relative="1" as="geometry">
            <mxPoint as="offset" />
          </mxGeometry>
        </mxCell>
        <mxCell id="stXpBWwS-PEf_fCnOzC--10" value="restrictions requests" style="shape=cylinder3;whiteSpace=wrap;html=1;boundedLbl=1;backgroundOutline=1;size=15;" vertex="1" parent="1">
          <mxGeometry x="590" y="150" width="60" height="80" as="geometry" />
        </mxCell>
        <mxCell id="stXpBWwS-PEf_fCnOzC--16" value="" style="edgeStyle=orthogonalEdgeStyle;rounded=0;orthogonalLoop=1;jettySize=auto;html=1;" edge="1" parent="1" source="stXpBWwS-PEf_fCnOzC--13" target="stXpBWwS-PEf_fCnOzC--15">
          <mxGeometry relative="1" as="geometry" />
        </mxCell>
        <mxCell id="stXpBWwS-PEf_fCnOzC--17" value="No" style="edgeLabel;html=1;align=center;verticalAlign=middle;resizable=0;points=[];" vertex="1" connectable="0" parent="stXpBWwS-PEf_fCnOzC--16">
          <mxGeometry x="-0.175" y="-2" relative="1" as="geometry">
            <mxPoint x="14" y="-2" as="offset" />
          </mxGeometry>
        </mxCell>
        <mxCell id="stXpBWwS-PEf_fCnOzC--19" value="" style="edgeStyle=orthogonalEdgeStyle;rounded=0;orthogonalLoop=1;jettySize=auto;html=1;" edge="1" parent="1" source="stXpBWwS-PEf_fCnOzC--13" target="stXpBWwS-PEf_fCnOzC--18">
          <mxGeometry relative="1" as="geometry" />
        </mxCell>
        <mxCell id="stXpBWwS-PEf_fCnOzC--34" value="Yes" style="edgeLabel;html=1;align=center;verticalAlign=middle;resizable=0;points=[];" vertex="1" connectable="0" parent="stXpBWwS-PEf_fCnOzC--19">
          <mxGeometry x="-0.1613" relative="1" as="geometry">
            <mxPoint as="offset" />
          </mxGeometry>
        </mxCell>
        <mxCell id="stXpBWwS-PEf_fCnOzC--13" value="if&amp;nbsp;&lt;div&gt;(restriction_created_time &amp;gt; cron_job_last_executed_time)&lt;/div&gt;" style="rhombus;whiteSpace=wrap;html=1;rounded=1;" vertex="1" parent="1">
          <mxGeometry x="140" y="457.5" width="200" height="162.5" as="geometry" />
        </mxCell>
        <mxCell id="stXpBWwS-PEf_fCnOzC--15" value="Stop execution" style="ellipse;whiteSpace=wrap;html=1;rounded=1;" vertex="1" parent="1">
          <mxGeometry x="430" y="518.13" width="80" height="41.25" as="geometry" />
        </mxCell>
        <mxCell id="stXpBWwS-PEf_fCnOzC--23" value="" style="edgeStyle=orthogonalEdgeStyle;rounded=0;orthogonalLoop=1;jettySize=auto;html=1;" edge="1" parent="1" source="stXpBWwS-PEf_fCnOzC--18" target="stXpBWwS-PEf_fCnOzC--22">
          <mxGeometry relative="1" as="geometry" />
        </mxCell>
        <mxCell id="stXpBWwS-PEf_fCnOzC--18" value="Executing the pod restart" style="whiteSpace=wrap;html=1;rounded=1;" vertex="1" parent="1">
          <mxGeometry x="160" y="697.5" width="160" height="60" as="geometry" />
        </mxCell>
        <mxCell id="stXpBWwS-PEf_fCnOzC--25" style="edgeStyle=orthogonalEdgeStyle;rounded=0;orthogonalLoop=1;jettySize=auto;html=1;exitX=1;exitY=0.5;exitDx=0;exitDy=0;entryX=0.717;entryY=1.019;entryDx=0;entryDy=0;entryPerimeter=0;" edge="1" parent="1" source="stXpBWwS-PEf_fCnOzC--22" target="stXpBWwS-PEf_fCnOzC--6">
          <mxGeometry relative="1" as="geometry">
            <mxPoint x="590" y="467.5" as="targetPoint" />
          </mxGeometry>
        </mxCell>
        <mxCell id="stXpBWwS-PEf_fCnOzC--27" value="" style="edgeStyle=orthogonalEdgeStyle;rounded=0;orthogonalLoop=1;jettySize=auto;html=1;" edge="1" parent="1" source="stXpBWwS-PEf_fCnOzC--22">
          <mxGeometry relative="1" as="geometry">
            <mxPoint x="240" y="927.5" as="targetPoint" />
          </mxGeometry>
        </mxCell>
        <mxCell id="stXpBWwS-PEf_fCnOzC--22" value="Updating the current time on cron_job table updated_on column" style="whiteSpace=wrap;html=1;rounded=1;" vertex="1" parent="1">
          <mxGeometry x="160" y="807.5" width="160" height="60" as="geometry" />
        </mxCell>
        <mxCell id="stXpBWwS-PEf_fCnOzC--33" value="Stop" style="ellipse;whiteSpace=wrap;html=1;" vertex="1" parent="1">
          <mxGeometry x="175" y="927.5" width="130" height="65" as="geometry" />
        </mxCell>
      </root>
    </mxGraphModel>
  </diagram>
</mxfile>
